<svg xmlns="http://www.w3.org/2000/svg" version="1.1" xmlns:xlink="http://www.w3.org/1999/xlink" xmlns:svgjs="http://svgjs.dev/svgjs" viewBox="0 0 8.530662627641057 4.8997646120594425"><g transform="matrix(0.8140540906919334,0,0,0.8140540906919334,1.248666502740969,3.364470181024485)"><rect width="9.649864897616098" height="9.649864897616098" x="-1.1192022699750415" y="-5.94843011985025" fill="#ffffff"></rect><g transform="matrix(1,0,0,1,0,0)" clip-path="url(#SvgjsClipPath158294)"><g clip-path="url(#b60417791-5b26-4eca-8164-bafa7ac7c05ea835d84e-cffb-40e0-ad1b-07f3c0fe018a)"><path d=" M 1.6387056195543925 -2.3666708444053377 L 1.879860915355219 -2.405879616069236 L 1.8757792847367798 -1.9320336984270539 L 1.6387056195543925 -1.9320336984270539 Z" fill="#0e1425" transform="matrix(1,0,0,1,0,0)" fill-rule="nonzero"></path></g><g clip-path="url(#b60417791-5b26-4eca-8164-bafa7ac7c05ea835d84e-cffb-40e0-ad1b-07f3c0fe018a)"><path d=" M 6.184486713059004 -1.780511011007151 L 6.903406291895715 -1.8639897763018127 L 6.532003023344635 -1.0658363280136172 L 5.706986166155389 -1.0658488868770586 Z" fill="#0e1425" transform="matrix(1,0,0,1,0,0)" fill-rule="nonzero"></path></g><g clip-path="url(#b60417791-5b26-4eca-8164-bafa7ac7c05ea835d84e-cffb-40e0-ad1b-07f3c0fe018a)"><path d=" M 0.9998487951562962 -2.01806191300031 L 1.7110697907034584 -3.0137788420844016 L 3.4424974990453467 -2.3279393095522103 L 6.195865043336869 -2.3497163787595134 L 5.650081955902626 -1.4389978374464867 L 3.803338763442251 -1.4389978374464867 L 3.3441615982995665 -1.417798475957486 L 1.718994433534951 -2.8715371547476574 L 1.063057554856617 -1.939016426500445 Z" fill="#0e1425" transform="matrix(1,0,0,1,0,0)" fill-rule="nonzero"></path></g><g clip-path="url(#b60417791-5b26-4eca-8164-bafa7ac7c05ea835d84e-cffb-40e0-ad1b-07f3c0fe018a)"><path d=" M 0.7469635209012476 -2.0496725722821907 L 1.2719616893400534 -1.9967118451500128 L 2.268783798406984 -1.0673182738996967 L 1.8007023990843818 -1.0644674118985098 Z" fill="#0e1425" transform="matrix(1,0,0,1,0,0)" fill-rule="nonzero"></path></g><g clip-path="url(#b60417791-5b26-4eca-8164-bafa7ac7c05ea835d84e-cffb-40e0-ad1b-07f3c0fe018a)"><path d=" M 0.7469635209012476 -2.0496725722821907 L 0 -1.0658614457405002 L 0.10937514171072789 -1.0658614457405002 L 0.8128598773780175 -1.99436333768648 Z" fill="#0e1425" transform="matrix(1,0,0,1,0,0)" fill-rule="nonzero"></path></g><g clip-path="url(#b60417791-5b26-4eca-8164-bafa7ac7c05ea835d84e-cffb-40e0-ad1b-07f3c0fe018a)"><path d=" M 0.7041252377027987 -1.5936100052729618 L 0.9099022151893388 -1.61292553724576 L 0.9095505670129809 -1.2421376530033061 L 0.7041252377027987 -1.2421376530033061 Z" fill="#0e1425" transform="matrix(1,0,0,1,0,0)" fill-rule="nonzero"></path></g><g clip-path="url(#b60417791-5b26-4eca-8164-bafa7ac7c05ea835d84e-cffb-40e0-ad1b-07f3c0fe018a)"><path d=" M 3.95278923839433 -1.9501435795094821 L 3.95278923839433 -2.4820616817044727 L 4.187577190430392 -2.4206865160665894 L 4.195363685764029 -2.0933522993312104 Z" fill="#0e1425" transform="matrix(1,0,0,1,0,0)" fill-rule="nonzero"></path></g><g clip-path="url(#b60417791-5b26-4eca-8164-bafa7ac7c05ea835d84e-cffb-40e0-ad1b-07f3c0fe018a)"><path d=" M 3.9529901802093925 -2.4838073637228204 L 3.9529901802093925 -1.9483853386276928 L 3.727746964388758 -2.0933397404677687 L 3.723075067188575 -2.4014965727282043 Z" fill="#bd2949" transform="matrix(1,0,0,1,0,0)" fill-rule="nonzero"></path></g><g clip-path="url(#b60417791-5b26-4eca-8164-bafa7ac7c05ea835d84e-cffb-40e0-ad1b-07f3c0fe018a)"><path d=" M 4.214855041825007 -2.47952479128932 L 3.9529901802093925 -2.5648622683733016 L 3.956883427876211 -2.4791354665226377 L 4.214076392291643 -2.4089942142026914 Z" fill="#0e1425" transform="matrix(1,0,0,1,0,0)" fill-rule="nonzero"></path></g><g clip-path="url(#b60417791-5b26-4eca-8164-bafa7ac7c05ea835d84e-cffb-40e0-ad1b-07f3c0fe018a)"><path d=" M 3.69579721579396 -2.481283032171109 L 3.9576620774095748 -2.5666205092550904 L 3.953768829742756 -2.480893707404427 L 3.6965758653273237 -2.4107524550844803 Z" fill="#0e1425" transform="matrix(1,0,0,1,0,0)" fill-rule="nonzero"></path></g><g clip-path="url(#b60417791-5b26-4eca-8164-bafa7ac7c05ea835d84e-cffb-40e0-ad1b-07f3c0fe018a)"><path d=" M 3.7133293891580865 -2.0668530974699593 L 3.7425538643861107 -2.0668530974699593 L 3.7425538643861107 -2.4409565216609304 L 3.7133293891580865 -2.4409565216609304 Z" fill="#0e1425" transform="matrix(1,0,0,1,0,0)" fill-rule="nonzero"></path></g><g clip-path="url(#b60417791-5b26-4eca-8164-bafa7ac7c05ea835d84e-cffb-40e0-ad1b-07f3c0fe018a)"><path d=" M 6.1939686549572235 -2.348133961965903 L 6.6350987333346865 -1.7710290691089308 L 6.54972357966038 -1.7710290691089308 L 6.14495141094563 -2.3086112187159706 Z" fill="#0e1425" transform="matrix(1,0,0,1,0,0)" fill-rule="nonzero"></path></g><g clip-path="url(#b60417791-5b26-4eca-8164-bafa7ac7c05ea835d84e-cffb-40e0-ad1b-07f3c0fe018a)"><path d=" M 6.897578979258928 -1.8643163067512878 L 7.389308718441595 -1.0658488868770586 L 7.303921005903847 -1.0658488868770586 L 6.848561735247333 -1.8247935635013555 Z" fill="#0e1425" transform="matrix(1,0,0,1,0,0)" fill-rule="nonzero"></path></g><g clip-path="url(#b60417791-5b26-4eca-8164-bafa7ac7c05ea835d84e-cffb-40e0-ad1b-07f3c0fe018a)"><path d=" M 6.184486713059004 -2.15840721195741 L 6.10701108448931 -2.0002911212307977 L 6.292003142980413 -2.001873538024408 Z" fill="#0e1425" transform="matrix(1,0,0,1,0,0)" fill-rule="nonzero"></path></g><g clip-path="url(#b60417791-5b26-4eca-8164-bafa7ac7c05ea835d84e-cffb-40e0-ad1b-07f3c0fe018a)"><path d=" M 4.198415489580278 -0.3195635446016434 L 4.550189254572526 -0.3195635446016434 L 4.550189254572526 -0.9203921304993283 L 4.198415489580278 -0.9203921304993283 Z" fill="#0e1425" transform="matrix(1,0,0,1,0,0)" fill-rule="nonzero"></path></g><g clip-path="url(#b60417791-5b26-4eca-8164-bafa7ac7c05ea835d84e-cffb-40e0-ad1b-07f3c0fe018a)"><path d=" M 4.554547180186676 -0.9903826764579788 C 4.554547180186676 -1.089924228094129 4.473843923712552 -1.170627484568252 4.374302372076402 -1.170627484568252 C 4.2747482615768115 -1.170627484568252 4.194057563966129 -1.089924228094129 4.194057563966129 -0.9903826764579788" fill="#0e1425" transform="matrix(1,0,0,1,0,0)" fill-rule="nonzero"></path></g><g clip-path="url(#b60417791-5b26-4eca-8164-bafa7ac7c05ea835d84e-cffb-40e0-ad1b-07f3c0fe018a)"><path d=" M 4.4800480022525795 -0.6104896162205451 C 4.495765134048839 -0.6104896162205451 4.508506386810682 -0.6232308689823873 4.508506386810682 -0.638948000778647 C 4.508506386810682 -0.6546651325749071 4.495765134048839 -0.6674063853367489 4.4800480022525795 -0.6674063853367489 C 4.46433087045632 -0.6674063853367489 4.451589617694477 -0.6546651325749071 4.451589617694477 -0.638948000778647 C 4.451589617694477 -0.6232308689823873 4.46433087045632 -0.6104896162205451 4.4800480022525795 -0.6104896162205451" fill="#0e1425" transform="matrix(1,0,0,1,0,0)" fill-rule="nonzero"></path></g><g clip-path="url(#b60417791-5b26-4eca-8164-bafa7ac7c05ea835d84e-cffb-40e0-ad1b-07f3c0fe018a)"><path d=" M 0.15727464687604156 -0.2499999999999991 L 0.23634525110278895 -0.2499999999999991 L 0.23634525110278895 -1.0658488868770586 L 0.15727464687604156 -1.0658488868770586 Z M 7.202721684293439 -0.2499999999999991 L 7.281792288520188 -0.2499999999999991 L 7.281792288520188 -1.0658488868770586 L 7.202721684293439 -1.0658488868770586 Z M 0.03080689202163459 -1.0658488868770586 L 0.23634525110278895 -1.0658488868770586 L 0.23634525110278895 -1.110118880507822 L 0.03080689202163459 -1.110118880507822 Z" fill="#0e1425" transform="matrix(1,0,0,1,0,0)" fill-rule="nonzero"></path></g><g clip-path="url(#b60417791-5b26-4eca-8164-bafa7ac7c05ea835d84e-cffb-40e0-ad1b-07f3c0fe018a)"><path d=" M 7.201930475896633 -1.0215788932462955 L 7.391669784768568 -1.0215788932462955 L 7.391669784768568 -1.0658488868770586 L 7.201930475896633 -1.0658488868770586 Z" fill="#0e1425" transform="matrix(1,0,0,1,0,0)" fill-rule="nonzero"></path></g><g clip-path="url(#b60417791-5b26-4eca-8164-bafa7ac7c05ea835d84e-cffb-40e0-ad1b-07f3c0fe018a)"><path d=" M 5.457177813443472 -2.3370696032740725 L 5.0650649790776034 -2.469879584166362 L 5.204204627144334 -2.2611763914979868 L 5.330684940862182 -2.2421999488381053 Z" fill="#0e1425" transform="matrix(1,0,0,1,0,0)" fill-rule="nonzero"></path></g><g clip-path="url(#b60417791-5b26-4eca-8164-bafa7ac7c05ea835d84e-cffb-40e0-ad1b-07f3c0fe018a)"><path d=" M 5.94845543354225 -0.8318521432378025 L 6.235086373864209 -0.8318521432378025 L 6.235086373864209 -0.5535728471043413 L 5.949610848978854 -0.5861882154615308 Z" fill="#0e1425" transform="matrix(1,0,0,1,0,0)" fill-rule="nonzero"></path></g><g clip-path="url(#b60417791-5b26-4eca-8164-bafa7ac7c05ea835d84e-cffb-40e0-ad1b-07f3c0fe018a)"><path d=" M 5.2453097871878755 -2.3155562701990378 L 5.055570478315941 -2.492008301550023 L 4.875325670205669 -2.290890662400224 L 4.875325670205669 -1.970237761015644 L 5.2453097871878755 -1.970237761015644 L 5.2453097871878755 -2.303223466299631" fill="#bd2949" transform="matrix(1,0,0,1,0,0)" fill-rule="nonzero"></path></g><g clip-path="url(#b60417791-5b26-4eca-8164-bafa7ac7c05ea835d84e-cffb-40e0-ad1b-07f3c0fe018a)"><path d=" M 5.063419767966786 -2.4863442541379737 L 4.862992866306262 -2.285917352477449 L 4.796267624842362 -2.29596444323053 L 5.059903286203207 -2.5179925900101785 L 5.496700556693404 -2.3307399360996315 L 5.313077414317407 -2.257785498368822 Z" fill="#0e1425" transform="matrix(1,0,0,1,0,0)" fill-rule="nonzero"></path></g></g><g><path d=" M 0.34882799999999997 0.3796694999999999 L 0.2924625 0.3796694999999999 L 0.2924625 0.7359419999999999 L 0.36159 0.7359419999999999 L 0.36159 0.7561484999999999 L 0.0159525 0.7561484999999999 L 0.0159525 0.7359419999999999 L 0.08508 0.7359419999999999 L 0.08508 0.03190499999999985 L 0.0159525 0.03190499999999985 L 0.0159525 0.011698499999999945 L 0.33712949999999997 0.011698499999999945 Q 0.4753845 0.011698499999999945 0.53334525 0.026055749999999933 Q 0.591306 0.04041299999999992 0.614703 0.06061949999999994 Q 0.665751 0.10209599999999985 0.665751 0.19249349999999987 Q 0.665751 0.2828909999999999 0.621084 0.3217087499999999 Q 0.576417 0.3605264999999999 0.484956 0.3679709999999999 L 0.484956 0.37116149999999987 Q 0.5710995 0.38285999999999987 0.6051315 0.4222094999999999 Q 0.6391635 0.4615589999999999 0.6391635 0.5540835 L 0.6391635 0.6104489999999999 Q 0.6391635 0.6657509999999999 0.64501275 0.6848939999999999 Q 0.6508619999999999 0.7040369999999999 0.670005 0.7040369999999999 Q 0.689148 0.7040369999999999 0.70031475 0.6864892499999999 Q 0.7114815 0.6689414999999999 0.7210529999999999 0.6125759999999999 L 0.7391325 0.6147029999999999 Q 0.727434 0.7051004999999999 0.69818775 0.7359419999999999 Q 0.6689415 0.7667834999999998 0.5817345 0.7667834999999998 Q 0.4945275 0.7667834999999998 0.45783675 0.7258387499999999 Q 0.421146 0.6848939999999999 0.421146 0.5721629999999999 L 0.421146 0.4945274999999999 Q 0.421146 0.4349714999999999 0.40572525 0.4073204999999999 Q 0.3903045 0.3796694999999999 0.34882799999999997 0.3796694999999999 M 0.2924625 0.03190499999999985 L 0.2924625 0.35946299999999987 L 0.3264945 0.35946299999999987 Q 0.387114 0.35946299999999987 0.41636025 0.3222404999999999 Q 0.4456065 0.2850179999999999 0.4456065 0.20100149999999994 L 0.4456065 0.17015999999999987 Q 0.4456065 0.08614349999999993 0.41742375 0.05902424999999989 Q 0.389241 0.03190499999999985 0.327558 0.03190499999999985 L 0.2924625 0.03190499999999985 M 1.2729923635253906 0.4275269999999999 L 1.2729923635253906 0.3488279999999999 Q 1.2729923635253906 0.15420749999999994 1.2538493635253904 0.10315949999999985 Q 1.2325793635253905 0.0446669999999999 1.1932298635253904 0.030841499999999855 Q 1.1708963635253906 0.022333499999999895 1.1389913635253905 0.022333499999999895 Q 1.1070863635253905 0.022333499999999895 1.0842211135253905 0.030841499999999855 Q 1.0613558635253906 0.039349499999999926 1.0464668635253904 0.06061949999999994 Q 1.0315778635253905 0.08188949999999995 1.0225381135253906 0.10528649999999995 Q 1.0134983635253905 0.12868349999999984 1.0081808635253906 0.17122349999999986 Q 1.0017998635253904 0.2329064999999999 1.0017998635253904 0.3530819999999999 L 1.0017998635253904 0.42965399999999987 Q 1.0017998635253904 0.5594009999999999 1.0119031135253906 0.6141712499999998 Q 1.0220063635253904 0.6689414999999999 1.0368953635253906 0.6923384999999999 Q 1.0698638635253905 0.7444499999999998 1.1389913635253905 0.7444499999999998 Q 1.2230078635253905 0.7444499999999998 1.2480001135253906 0.6737272499999999 Q 1.2729923635253906 0.6030044999999999 1.2729923635253906 0.4275269999999999 M 0.8715211135253905 0.6705367499999999 Q 0.7837823635253905 0.5742899999999999 0.7837823635253905 0.3918997499999999 Q 0.7837823635253905 0.2095094999999999 0.8779021135253905 0.1047547499999999 Q 0.9720218635253906 -1.1102230246251565e-16 1.1443088635253904 -1.1102230246251565e-16 Q 1.3165958635253905 -1.1102230246251565e-16 1.4043346135253905 0.09943724999999992 Q 1.4920733635253907 0.19887449999999984 1.4920733635253907 0.38179649999999987 Q 1.4920733635253907 0.5647184999999999 1.4032711135253906 0.6657509999999999 Q 1.3144688635253905 0.7667834999999998 1.1368643635253906 0.7667834999999998 Q 0.9592598635253905 0.7667834999999998 0.8715211135253905 0.6705367499999999 M 1.9047092863769528 0.3615899999999999 L 2.0557262863769528 0.028714499999999865 L 1.948312786376953 0.028714499999999865 L 1.948312786376953 0.011698499999999945 L 2.1578222863769527 0.011698499999999945 L 2.1578222863769527 0.028714499999999865 L 2.087631286376953 0.028714499999999865 L 1.927042786376953 0.3839234999999999 L 1.927042786376953 0.7359419999999999 L 1.991916286376953 0.7359419999999999 L 1.991916286376953 0.7561484999999999 L 1.654786786376953 0.7561484999999999 L 1.654786786376953 0.7359419999999999 L 1.719660286376953 0.7359419999999999 L 1.719660286376953 0.4041299999999999 L 1.538865286376953 0.028714499999999865 L 1.4888807863769529 0.028714499999999865 L 1.4888807863769529 0.011698499999999945 L 1.8292007863769528 0.011698499999999945 L 1.8292007863769528 0.028714499999999865 L 1.7600732863769528 0.028714499999999865 L 1.9047092863769528 0.3615899999999999 M 2.5066565178222655 0.7359419999999999 L 2.4290210178222655 0.5062259999999998 L 2.2184480178222654 0.5062259999999998 L 2.1365585178222655 0.7359419999999999 L 2.2163210178222656 0.7359419999999999 L 2.2163210178222656 0.7561484999999999 L 2.0536055178222656 0.7561484999999999 L 2.0536055178222656 0.7359419999999999 L 2.1035900178222655 0.7359419999999999 L 2.3747825178222657 0.005317499999999864 L 2.4619895178222655 0.005317499999999864 L 2.7299915178222656 0.7359419999999999 L 2.7789125178222656 0.7359419999999999 L 2.7789125178222656 0.7561484999999999 L 2.4311480178222653 0.7561484999999999 L 2.4311480178222653 0.7359419999999999 L 2.5066565178222655 0.7359419999999999 M 2.3279885178222655 0.20419199999999993 L 2.2280195178222653 0.4828289999999999 L 2.4205130178222656 0.4828289999999999 L 2.3279885178222655 0.20419199999999993 M 2.807594822021484 0.011698499999999945 L 3.1904548220214846 0.011698499999999945 L 3.1904548220214846 0.035095499999999946 L 3.0777238220214844 0.035095499999999946 L 3.0777238220214844 0.7327514999999999 L 3.1160098220214842 0.7327514999999999 Q 3.2064073220214846 0.7327514999999999 3.2601140720214845 0.6774494999999999 Q 3.3138208220214844 0.6221474999999999 3.3691228220214846 0.5072895 L 3.3914563220214844 0.5072895 L 3.3712498220214844 0.7561484999999999 L 2.807594822021484 0.7561484999999999 L 2.807594822021484 0.7327514999999999 L 2.8703413220214844 0.7327514999999999 L 2.8703413220214844 0.035095499999999946 L 2.807594822021484 0.035095499999999946 L 2.807594822021484 0.011698499999999945 M 3.8338707641601557 0.0212699999999999 Q 3.669028264160156 0.0212699999999999 3.669028264160156 0.3392564999999999 L 3.669028264160156 0.4232729999999999 Q 3.669028264160156 0.5742899999999999 3.712631764160156 0.6599017499999998 Q 3.7562352641601557 0.7455134999999999 3.841315264160156 0.7455134999999999 Q 3.958300264160156 0.7455134999999999 4.056142264160156 0.5179244999999999 L 4.075285264160156 0.5179244999999999 L 4.067840764160156 0.7550849999999999 L 4.056142264160156 0.7550849999999999 Q 4.049761264160156 0.7433864999999998 4.044443764160156 0.7386007499999999 Q 4.039126264160156 0.7338149999999999 4.029023014160156 0.7338149999999999 Q 4.018919764160156 0.7338149999999999 3.951919264160156 0.7502992499999999 Q 3.884918764160156 0.7667834999999998 3.815791264160156 0.7667834999999998 Q 3.642440764160156 0.7667834999999998 3.547257514160156 0.6731954999999998 Q 3.452074264160156 0.5796074999999998 3.452074264160156 0.3918997499999999 Q 3.452074264160156 0.20419199999999993 3.551511514160156 0.10209599999999985 Q 3.650948764160156 -1.1102230246251565e-16 3.818981764160156 -1.1102230246251565e-16 Q 3.883855264160156 -1.1102230246251565e-16 3.946070014160156 0.016484249999999867 Q 4.008284764160156 0.032968499999999845 4.018919764160156 0.032968499999999845 Q 4.029554764160156 0.032968499999999845 4.034872264160156 0.028182749999999923 Q 4.040189764160156 0.02339699999999989 4.046570764160156 0.011698499999999945 L 4.058269264160156 0.011698499999999945 L 4.066777264160156 0.24247799999999986 L 4.0476342641601555 0.24247799999999986 Q 3.999776764160156 0.13506449999999992 3.949260514160156 0.07816724999999991 Q 3.8987442641601557 0.0212699999999999 3.8338707641601557 0.0212699999999999 M 4.4911163605957025 0.3796694999999999 L 4.4347508605957024 0.3796694999999999 L 4.4347508605957024 0.7359419999999999 L 4.503878360595702 0.7359419999999999 L 4.503878360595702 0.7561484999999999 L 4.158240860595702 0.7561484999999999 L 4.158240860595702 0.7359419999999999 L 4.227368360595702 0.7359419999999999 L 4.227368360595702 0.03190499999999985 L 4.158240860595702 0.03190499999999985 L 4.158240860595702 0.011698499999999945 L 4.479417860595702 0.011698499999999945 Q 4.617672860595702 0.011698499999999945 4.675633610595702 0.026055749999999933 Q 4.733594360595703 0.04041299999999992 4.756991360595702 0.06061949999999994 Q 4.808039360595703 0.10209599999999985 4.808039360595703 0.19249349999999987 Q 4.808039360595703 0.2828909999999999 4.763372360595702 0.3217087499999999 Q 4.718705360595703 0.3605264999999999 4.627244360595703 0.3679709999999999 L 4.627244360595703 0.37116149999999987 Q 4.713387860595702 0.38285999999999987 4.747419860595702 0.4222094999999999 Q 4.781451860595702 0.4615589999999999 4.781451860595702 0.5540835 L 4.781451860595702 0.6104489999999999 Q 4.781451860595702 0.6657509999999999 4.787301110595703 0.6848939999999999 Q 4.793150360595702 0.7040369999999999 4.812293360595702 0.7040369999999999 Q 4.831436360595703 0.7040369999999999 4.842603110595702 0.6864892499999999 Q 4.853769860595702 0.6689414999999999 4.863341360595703 0.6125759999999999 L 4.881420860595703 0.6147029999999999 Q 4.869722360595702 0.7051004999999999 4.840476110595702 0.7359419999999999 Q 4.811229860595702 0.7667834999999998 4.724022860595703 0.7667834999999998 Q 4.636815860595703 0.7667834999999998 4.600125110595703 0.7258387499999999 Q 4.563434360595703 0.6848939999999999 4.563434360595703 0.5721629999999999 L 4.563434360595703 0.4945274999999999 Q 4.563434360595703 0.4349714999999999 4.548013610595702 0.4073204999999999 Q 4.532592860595702 0.3796694999999999 4.4911163605957025 0.3796694999999999 M 4.4347508605957024 0.03190499999999985 L 4.4347508605957024 0.35946299999999987 L 4.468782860595702 0.35946299999999987 Q 4.529402360595703 0.35946299999999987 4.558648610595703 0.3222404999999999 Q 4.587894860595703 0.2850179999999999 4.587894860595703 0.20100149999999994 L 4.587894860595703 0.17015999999999987 Q 4.587894860595703 0.08614349999999993 4.559712110595703 0.05902424999999989 Q 4.5315293605957025 0.03190499999999985 4.469846360595702 0.03190499999999985 L 4.4347508605957024 0.03190499999999985 M 5.415280724121093 0.4275269999999999 L 5.415280724121093 0.3488279999999999 Q 5.415280724121093 0.15420749999999994 5.396137724121093 0.10315949999999985 Q 5.374867724121094 0.0446669999999999 5.335518224121094 0.030841499999999855 Q 5.313184724121093 0.022333499999999895 5.281279724121093 0.022333499999999895 Q 5.249374724121093 0.022333499999999895 5.226509474121094 0.030841499999999855 Q 5.203644224121093 0.039349499999999926 5.188755224121094 0.06061949999999994 Q 5.1738662241210935 0.08188949999999995 5.164826474121093 0.10528649999999995 Q 5.155786724121094 0.12868349999999984 5.150469224121093 0.17122349999999986 Q 5.144088224121093 0.2329064999999999 5.144088224121093 0.3530819999999999 L 5.144088224121093 0.42965399999999987 Q 5.144088224121093 0.5594009999999999 5.1541914741210935 0.6141712499999998 Q 5.164294724121094 0.6689414999999999 5.179183724121093 0.6923384999999999 Q 5.212152224121093 0.7444499999999998 5.281279724121093 0.7444499999999998 Q 5.365296224121093 0.7444499999999998 5.3902884741210935 0.6737272499999999 Q 5.415280724121093 0.6030044999999999 5.415280724121093 0.4275269999999999 M 5.013809474121094 0.6705367499999999 Q 4.926070724121093 0.5742899999999999 4.926070724121093 0.3918997499999999 Q 4.926070724121093 0.2095094999999999 5.020190474121093 0.1047547499999999 Q 5.114310224121093 -1.1102230246251565e-16 5.286597224121094 -1.1102230246251565e-16 Q 5.4588842241210935 -1.1102230246251565e-16 5.546622974121093 0.09943724999999992 Q 5.634361724121093 0.19887449999999984 5.634361724121093 0.38179649999999987 Q 5.634361724121093 0.5647184999999999 5.545559474121093 0.6657509999999999 Q 5.456757224121093 0.7667834999999998 5.279152724121094 0.7667834999999998 Q 5.101548224121093 0.7667834999999998 5.013809474121094 0.6705367499999999 M 6.070389454101561 0.5413214999999999 L 6.158659954101561 0.2350334999999999 L 6.094849954101561 0.03190499999999985 L 6.034230454101562 0.03190499999999985 L 6.034230454101562 0.011698499999999945 L 6.363915454101561 0.011698499999999945 L 6.363915454101561 0.03190499999999985 L 6.301168954101562 0.03190499999999985 L 6.4596304541015614 0.5349404999999999 L 6.587250454101562 0.03190499999999985 L 6.479836954101562 0.03190499999999985 L 6.479836954101562 0.011698499999999945 L 6.692536954101562 0.011698499999999945 L 6.692536954101562 0.03190499999999985 L 6.6223459541015615 0.03190499999999985 L 6.4266619541015615 0.7667834999999998 L 6.332010454101562 0.7667834999999998 L 6.1746124541015615 0.2860814999999999 L 6.036357454101561 0.7667834999999998 L 5.943832954101562 0.7667834999999998 L 5.675830954101562 0.03190499999999985 L 5.625846454101562 0.03190499999999985 L 5.625846454101562 0.011698499999999945 L 5.971483954101561 0.011698499999999945 L 5.971483954101561 0.03190499999999985 L 5.8970389541015615 0.03190499999999985 L 6.070389454101561 0.5413214999999999 M 7.326398532714843 0.03190499999999985 L 7.326398532714843 0.7561484999999999 L 7.177508532714843 0.7561484999999999 L 6.812728032714843 0.0680639999999999 L 6.812728032714843 0.7359419999999999 L 6.871220532714843 0.7359419999999999 L 6.871220532714843 0.7561484999999999 L 6.725521032714843 0.7561484999999999 L 6.725521032714843 0.7359419999999999 L 6.784013532714843 0.7359419999999999 L 6.784013532714843 0.03190499999999985 L 6.725521032714843 0.03190499999999985 L 6.725521032714843 0.011698499999999945 L 7.019047032714843 0.011698499999999945 L 7.297684032714843 0.5455754999999999 L 7.297684032714843 0.03190499999999985 L 7.239191532714843 0.03190499999999985 L 7.239191532714843 0.011698499999999945 L 7.384891032714843 0.011698499999999945 L 7.384891032714843 0.03190499999999985 L 7.326398532714843 0.03190499999999985" fill="#0e1425" fill-rule="nonzero"></path></g><g></g></g><defs><clipPath id="SvgjsClipPath158294"><path d=" M 0 -3.0137788420844016 h 7.391669784768568 v 2.7637788420844016 h -7.391669784768568 Z"></path></clipPath><clipPath id="b60417791-5b26-4eca-8164-bafa7ac7c05ea835d84e-cffb-40e0-ad1b-07f3c0fe018a"><path d=" M -0.01255886344135124 -3.0263377055257528 L 7.404228648209919 -3.0263377055257528 L 7.404228648209919 -0.23744113655864796 L -0.01255886344135124 -0.23744113655864796 Z"></path></clipPath></defs></svg>